<svg xmlns="http://www.w3.org/2000/svg" viewBox="0 0 960 420" role="img" aria-label="Anak yang hilang">
  <rect width="960" height="420" fill="#fff7ed"/>
  <rect x="8" y="8" width="944" height="404" fill="#fff" stroke="#000" stroke-width="4" rx="8"/>
  
    <g>
      <rect x="20" y="20" width="300" height="360" fill="#fef08a" stroke="#000" stroke-width="5" rx="4"/>
      <g transform="translate(20, 20)">
        <path d="M94 164.60000000000002 L86 234 L154 234 L146 164.60000000000002 Z" fill="#78350f" stroke="#111827" stroke-width="2.5"/><rect x="110" y="232" width="8" height="14" rx="3" fill="#44403c" stroke="#111827" stroke-width="2"/><rect x="122" y="232" width="8" height="14" rx="3" fill="#44403c" stroke="#111827" stroke-width="2"/><path d="M98 178.60000000000002 L86 202.60000000000002" stroke="#fdba74" stroke-width="7" stroke-linecap="round"/><path d="M142 174.60000000000002 L168 160.60000000000002" stroke="#fdba74" stroke-width="7" stroke-linecap="round"/><circle cx="170" cy="158.60000000000002" r="4" fill="#fdba74" stroke="#111827" stroke-width="2"/><circle cx="120" cy="148.3" r="14.3" fill="#fdba74" stroke="#111827" stroke-width="2.5"/><path d="M106.844 143.29500000000002 Q120 126.135 133.156 143.29500000000002 Z" fill="#292524" stroke="#111827" stroke-width="2.5"/>
    <circle cx="114.566" cy="146.155" r="1.8" fill="#111827"/>
    <circle cx="125.434" cy="146.155" r="1.8" fill="#111827"/>
    <path d="M110.566 138.155 Q114.566 132.155 118.566 138.155" fill="none" stroke="#111827" stroke-width="2"/><path d="M121.434 138.155 Q125.434 132.155 129.434 138.155" fill="none" stroke="#111827" stroke-width="2"/>
    <path d="M114.995 153.305 Q120 157.595 125.005 153.305" fill="none" stroke="#111827" stroke-width="2"/>
  
    <polygon points="220,80 254,102 264,134 236,156 204,156 176,134 186,102" fill="#fff" stroke="#111827" stroke-width="2.5"/>
    <text x="220" y="126" text-anchor="middle" font-family="Comic Sans MS, cursive, system-ui" font-size="22" font-weight="900" fill="#dc2626">UANG</text>
  
      </g>
      <rect x="30" y="300" width="280" height="70" rx="8" fill="#fff" stroke="#000" stroke-width="3"/>
      <text x="170" y="342" text-anchor="middle" font-family="Comic Sans MS, cursive, system-ui" font-size="15" font-weight="700" fill="#000">Anak pergi jauh</text>
    </g>
    <g>
      <rect x="330" y="20" width="300" height="360" fill="#44403c" stroke="#000" stroke-width="5" rx="4"/>
      <g transform="translate(330, 20)">
        <path d="M134 164.60000000000002 L126 234 L194 234 L186 164.60000000000002 Z" fill="#78350f" stroke="#111827" stroke-width="2.5"/><rect x="150" y="232" width="8" height="14" rx="3" fill="#44403c" stroke="#111827" stroke-width="2"/><rect x="162" y="232" width="8" height="14" rx="3" fill="#44403c" stroke="#111827" stroke-width="2"/><path d="M140 174.60000000000002 L132 204.60000000000002" stroke="#fdba74" stroke-width="7" stroke-linecap="round"/><path d="M180 174.60000000000002 L188 204.60000000000002" stroke="#fdba74" stroke-width="7" stroke-linecap="round"/><circle cx="160" cy="148.3" r="14.3" fill="#fdba74" stroke="#111827" stroke-width="2.5"/><path d="M146.844 143.29500000000002 Q160 126.135 173.156 143.29500000000002 Z" fill="#292524" stroke="#111827" stroke-width="2.5"/>
    <circle cx="154.566" cy="146.155" r="1.8" fill="#111827"/>
    <circle cx="165.434" cy="146.155" r="1.8" fill="#111827"/>
    <path d="M149.566 140.155 L156.566 136.155" stroke="#111827" stroke-width="2"/><path d="M170.434 140.155 L163.434 136.155" stroke="#111827" stroke-width="2"/>
    <path d="M156.425 155.45000000000002 Q160 153.305 163.575 155.45000000000002" fill="none" stroke="#111827" stroke-width="2"/>
  <ellipse cx="90" cy="200" rx="28" ry="14" fill="#fca5a5" stroke="#111827" stroke-width="2"/><ellipse cx="230" cy="205" rx="24" ry="12" fill="#fca5a5" stroke="#111827" stroke-width="2"/>
      </g>
      <rect x="340" y="300" width="280" height="70" rx="8" fill="#fff" stroke="#000" stroke-width="3"/>
      <text x="480" y="342" text-anchor="middle" font-family="Comic Sans MS, cursive, system-ui" font-size="15" font-weight="700" fill="#000">Babi &amp; kelaparan</text>
    </g>
    <g>
      <rect x="640" y="20" width="300" height="360" fill="#fef3c7" stroke="#000" stroke-width="5" rx="4"/>
      <g transform="translate(640, 20)">
        <path d="M84 164.60000000000002 L76 234 L144 234 L136 164.60000000000002 Z" fill="#78350f" stroke="#111827" stroke-width="2.5"/><rect x="100" y="232" width="8" height="14" rx="3" fill="#44403c" stroke="#111827" stroke-width="2"/><rect x="112" y="232" width="8" height="14" rx="3" fill="#44403c" stroke="#111827" stroke-width="2"/><path d="M90 174.60000000000002 L76 140.60000000000002" stroke="#fdba74" stroke-width="7" stroke-linecap="round"/><path d="M130 174.60000000000002 L144 140.60000000000002" stroke="#fdba74" stroke-width="7" stroke-linecap="round"/><circle cx="110" cy="148.3" r="14.3" fill="#fdba74" stroke="#111827" stroke-width="2.5"/><path d="M96.844 143.29500000000002 Q110 126.135 123.156 143.29500000000002 Z" fill="#292524" stroke="#111827" stroke-width="2.5"/>
    <circle cx="104.566" cy="146.155" r="1.8" fill="#111827"/>
    <circle cx="115.434" cy="146.155" r="1.8" fill="#111827"/>
    <path d="M100.566 138.155 Q104.566 132.155 108.566 138.155" fill="none" stroke="#111827" stroke-width="2"/><path d="M111.434 138.155 Q115.434 132.155 119.434 138.155" fill="none" stroke="#111827" stroke-width="2"/>
    <path d="M104.995 153.305 Q110 157.595 115.005 153.305" fill="none" stroke="#111827" stroke-width="2"/>
  <path d="M176.6 172.74 L169.4 234 L230.6 234 L223.4 172.74 Z" fill="#6366f1" stroke="#111827" stroke-width="2.5"/><rect x="191" y="232" width="7.2" height="12.6" rx="3" fill="#44403c" stroke="#111827" stroke-width="2"/><rect x="201.8" y="232" width="7.2" height="12.6" rx="3" fill="#44403c" stroke="#111827" stroke-width="2"/><path d="M178 186.74 L166 210.74" stroke="#fdba74" stroke-width="7" stroke-linecap="round"/><path d="M222 182.74 L248 168.74" stroke="#fdba74" stroke-width="7" stroke-linecap="round"/><circle cx="250" cy="166.74" r="4" fill="#fdba74" stroke="#111827" stroke-width="2"/><circle cx="200" cy="157.87" r="12.870000000000001" fill="#fdba74" stroke="#111827" stroke-width="2.5"/><path d="M188.1596 153.3655 Q200 137.9215 211.8404 153.3655 Z" fill="#292524" stroke="#111827" stroke-width="2.5"/>
    <circle cx="195.1094" cy="155.9395" r="1.8" fill="#111827"/>
    <circle cx="204.8906" cy="155.9395" r="1.8" fill="#111827"/>
    <path d="M191.1094 147.9395 Q195.1094 141.9395 199.1094 147.9395" fill="none" stroke="#111827" stroke-width="2"/><path d="M200.8906 147.9395 Q204.8906 141.9395 208.8906 147.9395" fill="none" stroke="#111827" stroke-width="2"/>
    <path d="M195.4955 162.3745 Q200 166.2355 204.5045 162.3745" fill="none" stroke="#111827" stroke-width="2"/>
  
      </g>
      <rect x="650" y="300" width="280" height="70" rx="8" fill="#fff" stroke="#000" stroke-width="3"/>
      <text x="790" y="342" text-anchor="middle" font-family="Comic Sans MS, cursive, system-ui" font-size="15" font-weight="700" fill="#000">Bapa menyambut pulang</text>
    </g>
  <rect x="20" y="390" width="920" height="28" fill="#000"/>
  <text x="480" y="410" text-anchor="middle" font-family="Comic Sans MS, cursive, system-ui" font-size="16" font-weight="700" fill="#fff">ANAK YANG HILANG</text>
</svg>