<svg xmlns="http://www.w3.org/2000/svg" viewBox="0 0 960 420" role="img" aria-label="Panggilan Abraham">
  <rect width="960" height="420" fill="#fff7ed"/>
  <rect x="8" y="8" width="944" height="404" fill="#fff" stroke="#000" stroke-width="4" rx="8"/>
  
    <g>
      <rect x="20" y="20" width="300" height="360" fill="#1e1b4b" stroke="#000" stroke-width="5" rx="4"/>
      <g transform="translate(20, 20)">
        <polygon points="160,54 164.2320538165058,64.17507764050038 175.21690426072246,65.05572809000084 166.8476069173251,72.22492235949962 169.40456403667957,82.94427190999916 160,77.2 150.59543596332043,82.94427190999916 153.1523930826749,72.22492235949962 144.78309573927754,65.05572809000084 155.7679461834942,64.17507764050038" fill="#fde047" stroke="#111827" stroke-width="2.5"/><circle cx="80" cy="50" r="2" fill="#fff"/><circle cx="220" cy="40" r="2" fill="#fff"/>
      </g>
      <rect x="30" y="300" width="280" height="70" rx="8" fill="#fff" stroke="#000" stroke-width="3"/>
      <text x="170" y="342" text-anchor="middle" font-family="Comic Sans MS, cursive, system-ui" font-size="15" font-weight="700" fill="#000">Bintang di langit</text>
    </g>
    <g>
      <rect x="330" y="20" width="300" height="360" fill="#fef9c3" stroke="#000" stroke-width="5" rx="4"/>
      <g transform="translate(330, 20)">
        <path d="M84 164.60000000000002 L76 234 L144 234 L136 164.60000000000002 Z" fill="#78350f" stroke="#111827" stroke-width="2.5"/><rect x="100" y="232" width="8" height="14" rx="3" fill="#44403c" stroke="#111827" stroke-width="2"/><rect x="112" y="232" width="8" height="14" rx="3" fill="#44403c" stroke="#111827" stroke-width="2"/><path d="M88 178.60000000000002 L76 202.60000000000002" stroke="#fdba74" stroke-width="7" stroke-linecap="round"/><path d="M132 174.60000000000002 L158 160.60000000000002" stroke="#fdba74" stroke-width="7" stroke-linecap="round"/><circle cx="160" cy="158.60000000000002" r="4" fill="#fdba74" stroke="#111827" stroke-width="2"/><circle cx="110" cy="148.3" r="14.3" fill="#fdba74" stroke="#111827" stroke-width="2.5"/><path d="M96.844 143.29500000000002 Q110 126.135 123.156 143.29500000000002 Z" fill="#292524" stroke="#111827" stroke-width="2.5"/>
    <circle cx="104.566" cy="146.155" r="1.8" fill="#111827"/>
    <circle cx="115.434" cy="146.155" r="1.8" fill="#111827"/>
    <path d="M100.566 139.155 L108.566 139.155" stroke="#111827" stroke-width="2"/><path d="M111.434 139.155 L119.434 139.155" stroke="#111827" stroke-width="2"/>
    <path d="M106.854 154.306 Q110 155.16400000000002 113.146 154.306" fill="none" stroke="#111827" stroke-width="2"/>
  <rect x="180" y="170" width="60" height="36" fill="#d97706" stroke="#111827" stroke-width="2.5"/>
      </g>
      <rect x="340" y="300" width="280" height="70" rx="8" fill="#fff" stroke="#000" stroke-width="3"/>
      <text x="480" y="342" text-anchor="middle" font-family="Comic Sans MS, cursive, system-ui" font-size="15" font-weight="700" fill="#000">Berangkat dari Ur</text>
    </g>
    <g>
      <rect x="640" y="20" width="300" height="360" fill="#dcfce7" stroke="#000" stroke-width="5" rx="4"/>
      <g transform="translate(640, 20)">
        
    <rect x="70" y="90" width="180" height="44" rx="10" fill="#fff" stroke="#111827" stroke-width="2.5"/>
    <polygon points="94,134 104,146 114,134" fill="#fff" stroke="#111827" stroke-width="2.5"/>
    <text x="160" y="118" text-anchor="middle" font-family="Comic Sans MS, cursive, system-ui" font-size="12" font-weight="700" fill="#111827">Keturunanmu akan diberkati</text>
  <path d="M134 164.60000000000002 L126 234 L194 234 L186 164.60000000000002 Z" fill="#2563eb" stroke="#111827" stroke-width="2.5"/><rect x="150" y="232" width="8" height="14" rx="3" fill="#44403c" stroke="#111827" stroke-width="2"/><rect x="162" y="232" width="8" height="14" rx="3" fill="#44403c" stroke="#111827" stroke-width="2"/><path d="M142 176.60000000000002 L152 150.60000000000002 L160 140.60000000000002 L168 150.60000000000002 L178 176.60000000000002" fill="none" stroke="#fdba74" stroke-width="8" stroke-linecap="round"/><path d="M152 150.60000000000002 L160 140.60000000000002 L168 150.60000000000002" fill="none" stroke="#111827" stroke-width="2"/><circle cx="160" cy="148.3" r="14.3" fill="#fdba74" stroke="#111827" stroke-width="2.5"/><path d="M146.844 143.29500000000002 Q160 126.135 173.156 143.29500000000002 Z" fill="#292524" stroke="#111827" stroke-width="2.5"/>
    <circle cx="154.566" cy="146.155" r="1.8" fill="#111827"/>
    <circle cx="165.434" cy="146.155" r="1.8" fill="#111827"/>
    <path d="M150.566 138.155 Q154.566 132.155 158.566 138.155" fill="none" stroke="#111827" stroke-width="2"/><path d="M161.434 138.155 Q165.434 132.155 169.434 138.155" fill="none" stroke="#111827" stroke-width="2"/>
    <path d="M154.995 153.305 Q160 157.595 165.005 153.305" fill="none" stroke="#111827" stroke-width="2"/>
  
      </g>
      <rect x="650" y="300" width="280" height="70" rx="8" fill="#fff" stroke="#000" stroke-width="3"/>
      <text x="790" y="342" text-anchor="middle" font-family="Comic Sans MS, cursive, system-ui" font-size="15" font-weight="700" fill="#000">Janji Allah</text>
    </g>
  <rect x="20" y="390" width="920" height="28" fill="#000"/>
  <text x="480" y="410" text-anchor="middle" font-family="Comic Sans MS, cursive, system-ui" font-size="16" font-weight="700" fill="#fff">PANGGILAN ABRAHAM</text>
</svg>