<svg xmlns="http://www.w3.org/2000/svg" viewBox="0 0 960 420" role="img" aria-label="Pembaptisan Yesus">
  <rect width="960" height="420" fill="#fff7ed"/>
  <rect x="8" y="8" width="944" height="404" fill="#fff" stroke="#000" stroke-width="4" rx="8"/>
  
    <g>
      <rect x="20" y="20" width="300" height="360" fill="#ecfccb" stroke="#000" stroke-width="5" rx="4"/>
      <g transform="translate(20, 20)">
        <path d="M134 164.60000000000002 L126 234 L194 234 L186 164.60000000000002 Z" fill="#78350f" stroke="#111827" stroke-width="2.5"/><rect x="150" y="232" width="8" height="14" rx="3" fill="#44403c" stroke="#111827" stroke-width="2"/><rect x="162" y="232" width="8" height="14" rx="3" fill="#44403c" stroke="#111827" stroke-width="2"/><path d="M138 178.60000000000002 L126 202.60000000000002" stroke="#fdba74" stroke-width="7" stroke-linecap="round"/><path d="M182 174.60000000000002 L208 160.60000000000002" stroke="#fdba74" stroke-width="7" stroke-linecap="round"/><circle cx="210" cy="158.60000000000002" r="4" fill="#fdba74" stroke="#111827" stroke-width="2"/><circle cx="160" cy="148.3" r="14.3" fill="#fdba74" stroke="#111827" stroke-width="2.5"/><path d="M145.7 141.15 Q144.27 164.03 152.85 172.61 L167.15 172.61 Q175.73 164.03 174.3 141.15 Z" fill="#292524" stroke="#111827" stroke-width="2.5"/>
    <circle cx="154.566" cy="146.155" r="1.8" fill="#111827"/>
    <circle cx="165.434" cy="146.155" r="1.8" fill="#111827"/>
    <path d="M150.566 139.155 L158.566 139.155" stroke="#111827" stroke-width="2"/><path d="M161.434 139.155 L169.434 139.155" stroke="#111827" stroke-width="2"/>
    <path d="M156.854 154.306 Q160 155.16400000000002 163.146 154.306" fill="none" stroke="#111827" stroke-width="2"/>
  <rect x="0" y="200" width="320" height="60" fill="#0284c7" opacity="0.4"/>
      </g>
      <rect x="30" y="300" width="280" height="70" rx="8" fill="#fff" stroke="#000" stroke-width="3"/>
      <text x="170" y="342" text-anchor="middle" font-family="Comic Sans MS, cursive, system-ui" font-size="15" font-weight="700" fill="#000">Yohanes di Yordan</text>
    </g>
    <g>
      <rect x="330" y="20" width="300" height="360" fill="#0ea5e9" stroke="#000" stroke-width="5" rx="4"/>
      <g transform="translate(330, 20)">
        <path d="M134 144.60000000000002 L126 214 L194 214 L186 144.60000000000002 Z" fill="#fff" stroke="#111827" stroke-width="2.5"/><rect x="150" y="212" width="8" height="14" rx="3" fill="#44403c" stroke="#111827" stroke-width="2"/><rect x="162" y="212" width="8" height="14" rx="3" fill="#44403c" stroke="#111827" stroke-width="2"/><path d="M140 156.60000000000002 L130 180.60000000000002" stroke="#fef3c7" stroke-width="7" stroke-linecap="round"/><path d="M180 156.60000000000002 L190 180.60000000000002" stroke="#fef3c7" stroke-width="7" stroke-linecap="round"/><circle cx="160" cy="128.3" r="14.3" fill="#fef3c7" stroke="#111827" stroke-width="2.5"/><path d="M146.844 123.295 Q160 106.135 173.156 123.295 Z" fill="#292524" stroke="#111827" stroke-width="2.5"/>
    <circle cx="154.566" cy="126.15500000000002" r="1.8" fill="#111827"/>
    <circle cx="165.434" cy="126.15500000000002" r="1.8" fill="#111827"/>
    <path d="M151.566 119.15500000000002 Q154.566 115.15500000000002 157.566 119.15500000000002" fill="none" stroke="#111827" stroke-width="1.8"/><path d="M162.434 119.15500000000002 Q165.434 115.15500000000002 168.434 119.15500000000002" fill="none" stroke="#111827" stroke-width="1.8"/>
    <line x1="157" y1="134.02" x2="163" y2="134.02" stroke="#111827" stroke-width="2"/>
  <rect x="0" y="200" width="320" height="60" fill="#0284c7" opacity="0.5"/>
      </g>
      <rect x="340" y="300" width="280" height="70" rx="8" fill="#fff" stroke="#000" stroke-width="3"/>
      <text x="480" y="342" text-anchor="middle" font-family="Comic Sans MS, cursive, system-ui" font-size="15" font-weight="700" fill="#000">Yesus dibaptis</text>
    </g>
    <g>
      <rect x="640" y="20" width="300" height="360" fill="#fef08a" stroke="#000" stroke-width="5" rx="4"/>
      <g transform="translate(640, 20)">
        <polygon points="160,60 140,100 180,100" fill="#fde047" stroke="#111827" stroke-width="2"/>
    <rect x="60" y="110" width="200" height="44" rx="10" fill="#fff" stroke="#111827" stroke-width="2.5"/>
    <polygon points="84,154 94,166 104,154" fill="#fff" stroke="#111827" stroke-width="2.5"/>
    <text x="160" y="138" text-anchor="middle" font-family="Comic Sans MS, cursive, system-ui" font-size="12" font-weight="700" fill="#111827">Anak-Ku yang Kukasihi</text>
  
      </g>
      <rect x="650" y="300" width="280" height="70" rx="8" fill="#fff" stroke="#000" stroke-width="3"/>
      <text x="790" y="342" text-anchor="middle" font-family="Comic Sans MS, cursive, system-ui" font-size="15" font-weight="700" fill="#000">Roh turun &amp; Bapa berfirman</text>
    </g>
  <rect x="20" y="390" width="920" height="28" fill="#000"/>
  <text x="480" y="410" text-anchor="middle" font-family="Comic Sans MS, cursive, system-ui" font-size="16" font-weight="700" fill="#fff">PEMBAPTISAN YESUS</text>
</svg>