<svg xmlns="http://www.w3.org/2000/svg" viewBox="0 0 960 420" role="img" aria-label="Salomo meminta hikmat">
  <rect width="960" height="420" fill="#fff7ed"/>
  <rect x="8" y="8" width="944" height="404" fill="#fff" stroke="#000" stroke-width="4" rx="8"/>
  
    <g>
      <rect x="20" y="20" width="300" height="360" fill="#fef3c7" stroke="#000" stroke-width="5" rx="4"/>
      <g transform="translate(20, 20)">
        <path d="M134 164.60000000000002 L126 234 L194 234 L186 164.60000000000002 Z" fill="#ca8a04" stroke="#111827" stroke-width="2.5"/><rect x="150" y="232" width="8" height="14" rx="3" fill="#44403c" stroke="#111827" stroke-width="2"/><rect x="162" y="232" width="8" height="14" rx="3" fill="#44403c" stroke="#111827" stroke-width="2"/><path d="M142 176.60000000000002 L152 150.60000000000002 L160 140.60000000000002 L168 150.60000000000002 L178 176.60000000000002" fill="none" stroke="#fdba74" stroke-width="8" stroke-linecap="round"/><path d="M152 150.60000000000002 L160 140.60000000000002 L168 150.60000000000002" fill="none" stroke="#111827" stroke-width="2"/><circle cx="160" cy="148.3" r="14.3" fill="#fdba74" stroke="#111827" stroke-width="2.5"/><path d="M146.844 143.29500000000002 Q160 126.135 173.156 143.29500000000002 Z" fill="#292524" stroke="#111827" stroke-width="2.5"/>
    <circle cx="154.566" cy="146.155" r="1.8" fill="#111827"/>
    <circle cx="165.434" cy="146.155" r="1.8" fill="#111827"/>
    <path d="M151.566 139.155 Q154.566 135.155 157.566 139.155" fill="none" stroke="#111827" stroke-width="1.8"/><path d="M162.434 139.155 Q165.434 135.155 168.434 139.155" fill="none" stroke="#111827" stroke-width="1.8"/>
    <line x1="157" y1="154.02" x2="163" y2="154.02" stroke="#111827" stroke-width="2"/>
  <polygon points="144.27,132 152.135,117.843 160,124.21365 167.865,117.843 175.73,132" fill="#eab308" stroke="#111827" stroke-width="2.5"/><polygon points="160,60 165.29006727063225,72.71884705062547 179.02113032590307,73.81966011250105 168.55950864665638,82.78115294937453 171.75570504584945,96.18033988749895 160,89 148.24429495415055,96.18033988749895 151.44049135334362,82.78115294937453 140.97886967409693,73.81966011250105 154.70993272936775,72.71884705062547" fill="#fde047" stroke="#111827" stroke-width="2.5"/>
      </g>
      <rect x="30" y="300" width="280" height="70" rx="8" fill="#fff" stroke="#000" stroke-width="3"/>
      <text x="170" y="342" text-anchor="middle" font-family="Comic Sans MS, cursive, system-ui" font-size="15" font-weight="700" fill="#000">Mimpi di Gibeon</text>
    </g>
    <g>
      <rect x="330" y="20" width="300" height="360" fill="#ecfccb" stroke="#000" stroke-width="5" rx="4"/>
      <g transform="translate(330, 20)">
        
    <rect x="50" y="90" width="220" height="44" rx="10" fill="#fff" stroke="#111827" stroke-width="2.5"/>
    <polygon points="74,134 84,146 94,134" fill="#fff" stroke="#111827" stroke-width="2.5"/>
    <text x="160" y="118" text-anchor="middle" font-family="Comic Sans MS, cursive, system-ui" font-size="12" font-weight="700" fill="#111827">Berikanlah hati yang mengerti</text>
  <path d="M134 164.60000000000002 L126 234 L194 234 L186 164.60000000000002 Z" fill="#ca8a04" stroke="#111827" stroke-width="2.5"/><rect x="150" y="232" width="8" height="14" rx="3" fill="#44403c" stroke="#111827" stroke-width="2"/><rect x="162" y="232" width="8" height="14" rx="3" fill="#44403c" stroke="#111827" stroke-width="2"/><path d="M140 174.60000000000002 L132 204.60000000000002" stroke="#fdba74" stroke-width="7" stroke-linecap="round"/><path d="M180 174.60000000000002 L188 204.60000000000002" stroke="#fdba74" stroke-width="7" stroke-linecap="round"/><circle cx="160" cy="148.3" r="14.3" fill="#fdba74" stroke="#111827" stroke-width="2.5"/><path d="M146.844 143.29500000000002 Q160 126.135 173.156 143.29500000000002 Z" fill="#292524" stroke="#111827" stroke-width="2.5"/>
    <circle cx="154.566" cy="146.155" r="1.8" fill="#111827"/>
    <circle cx="165.434" cy="146.155" r="1.8" fill="#111827"/>
    <path d="M150.566 139.155 L158.566 139.155" stroke="#111827" stroke-width="2"/><path d="M161.434 139.155 L169.434 139.155" stroke="#111827" stroke-width="2"/>
    <path d="M156.854 154.306 Q160 155.16400000000002 163.146 154.306" fill="none" stroke="#111827" stroke-width="2"/>
  <polygon points="144.27,132 152.135,117.843 160,124.21365 167.865,117.843 175.73,132" fill="#eab308" stroke="#111827" stroke-width="2.5"/>
      </g>
      <rect x="340" y="300" width="280" height="70" rx="8" fill="#fff" stroke="#000" stroke-width="3"/>
      <text x="480" y="342" text-anchor="middle" font-family="Comic Sans MS, cursive, system-ui" font-size="15" font-weight="700" fill="#000">Meminta hati yang mengerti</text>
    </g>
    <g>
      <rect x="640" y="20" width="300" height="360" fill="#fef9c3" stroke="#000" stroke-width="5" rx="4"/>
      <g transform="translate(640, 20)">
        <path d="M64 164.60000000000002 L56 234 L124 234 L116 164.60000000000002 Z" fill="#db2777" stroke="#111827" stroke-width="2.5"/><rect x="80" y="232" width="8" height="14" rx="3" fill="#44403c" stroke="#111827" stroke-width="2"/><rect x="92" y="232" width="8" height="14" rx="3" fill="#44403c" stroke="#111827" stroke-width="2"/><path d="M70 174.60000000000002 L62 204.60000000000002" stroke="#fdba74" stroke-width="7" stroke-linecap="round"/><path d="M110 174.60000000000002 L118 204.60000000000002" stroke="#fdba74" stroke-width="7" stroke-linecap="round"/><circle cx="90" cy="148.3" r="14.3" fill="#fdba74" stroke="#111827" stroke-width="2.5"/><path d="M75.7 141.15 Q74.27 164.03 82.85 172.61 L97.15 172.61 Q105.73 164.03 104.3 141.15 Z" fill="#292524" stroke="#111827" stroke-width="2.5"/>
    <circle cx="84.566" cy="146.155" r="1.8" fill="#111827"/>
    <circle cx="95.434" cy="146.155" r="1.8" fill="#111827"/>
    <path d="M78.566 142.155 L88.566 134.155" stroke="#111827" stroke-width="2.5"/><path d="M101.434 142.155 L91.434 134.155" stroke="#111827" stroke-width="2.5"/>
    <path d="M85.71 154.735 L94.29 154.735" stroke="#111827" stroke-width="2.5"/>
  <path d="M204 164.60000000000002 L196 234 L264 234 L256 164.60000000000002 Z" fill="#6366f1" stroke="#111827" stroke-width="2.5"/><rect x="220" y="232" width="8" height="14" rx="3" fill="#44403c" stroke="#111827" stroke-width="2"/><rect x="232" y="232" width="8" height="14" rx="3" fill="#44403c" stroke="#111827" stroke-width="2"/><path d="M210 174.60000000000002 L202 204.60000000000002" stroke="#fdba74" stroke-width="7" stroke-linecap="round"/><path d="M250 174.60000000000002 L258 204.60000000000002" stroke="#fdba74" stroke-width="7" stroke-linecap="round"/><circle cx="230" cy="148.3" r="14.3" fill="#fdba74" stroke="#111827" stroke-width="2.5"/><path d="M215.7 141.15 Q214.27 164.03 222.85 172.61 L237.15 172.61 Q245.73 164.03 244.3 141.15 Z" fill="#292524" stroke="#111827" stroke-width="2.5"/>
    <circle cx="224.566" cy="146.155" r="1.8" fill="#111827"/>
    <circle cx="235.434" cy="146.155" r="1.8" fill="#111827"/>
    <path d="M219.566 140.155 L226.566 136.155" stroke="#111827" stroke-width="2"/><path d="M240.434 140.155 L233.434 136.155" stroke="#111827" stroke-width="2"/>
    <path d="M226.425 155.45000000000002 Q230 153.305 233.575 155.45000000000002" fill="none" stroke="#111827" stroke-width="2"/>
  <path d="M149.6 173.44 L146.4 194 L173.6 194 L170.4 173.44 Z" fill="#fff" stroke="#111827" stroke-width="2.5"/><rect x="156" y="192" width="3.2" height="5.6000000000000005" rx="3" fill="#44403c" stroke="#111827" stroke-width="2"/><rect x="160.8" y="192" width="3.2" height="5.6000000000000005" rx="3" fill="#44403c" stroke="#111827" stroke-width="2"/><path d="M140 183.44 L132 213.44" stroke="#fecdd3" stroke-width="7" stroke-linecap="round"/><path d="M180 183.44 L188 213.44" stroke="#fecdd3" stroke-width="7" stroke-linecap="round"/><circle cx="160" cy="165.72" r="5.720000000000001" fill="#fecdd3" stroke="#111827" stroke-width="2.5"/><path d="M154.7376 163.718 Q160 156.85399999999998 165.2624 163.718 Z" fill="#292524" stroke="#111827" stroke-width="2.5"/>
    <circle cx="157.8264" cy="164.862" r="1.8" fill="#111827"/>
    <circle cx="162.1736" cy="164.862" r="1.8" fill="#111827"/>
    <path d="M153.8264 156.862 Q157.8264 150.862 161.8264 156.862" fill="none" stroke="#111827" stroke-width="2"/><path d="M158.1736 156.862 Q162.1736 150.862 166.1736 156.862" fill="none" stroke="#111827" stroke-width="2"/>
    <path d="M157.998 167.722 Q160 169.438 162.002 167.722" fill="none" stroke="#111827" stroke-width="2"/>
  
      </g>
      <rect x="650" y="300" width="280" height="70" rx="8" fill="#fff" stroke="#000" stroke-width="3"/>
      <text x="790" y="342" text-anchor="middle" font-family="Comic Sans MS, cursive, system-ui" font-size="15" font-weight="700" fill="#000">Dua perempuan &amp; bayi</text>
    </g>
  <rect x="20" y="390" width="920" height="28" fill="#000"/>
  <text x="480" y="410" text-anchor="middle" font-family="Comic Sans MS, cursive, system-ui" font-size="16" font-weight="700" fill="#fff">SALOMO MEMINTA HIKMAT</text>
</svg>